<svg viewBox="0 0 128 128" fill="none" xmlns="http://www.w3.org/2000/svg">
<rect x="21" y="7" width="17" height="116" fill="black"/>
<path fill-rule="evenodd" clip-rule="evenodd" d="M38 44.6164V17L106 44.6164H38ZM38 45.3836V73L106 45.3836H38Z" fill="black"/>
<path d="M38 17L38.1881 16.5367L37.5 16.2573V17H38ZM38 44.6164H37.5V45.1164H38V44.6164ZM106 44.6164V45.1164L106.188 44.1532L106 44.6164ZM38 73H37.5V73.7427L38.1881 73.4632L38 73ZM38 45.3836V44.8836H37.5V45.3836H38ZM106 45.3836L106.188 45.8468L106 44.8836V45.3836ZM37.5 17V44.6164H38.5V17H37.5ZM106.188 44.1532L38.1881 16.5367L37.8119 17.4633L105.812 45.0797L106.188 44.1532ZM38 45.1164H106V44.1164H38V45.1164ZM38.5 73V45.3836H37.5V73H38.5ZM105.812 44.9203L37.8119 72.5367L38.1881 73.4632L106.188 45.8468L105.812 44.9203ZM38 45.8836H106V44.8836H38V45.8836Z" fill="black"/>
</svg>
